<?xml version="1.0" standalone="no"?><!DOCTYPE svg PUBLIC "-//W3C//DTD SVG 1.1//EN" "http://www.w3.org/Graphics/SVG/1.1/DTD/svg11.dtd"><svg t="1767170105071" class="icon" viewBox="0 0 1024 1024" version="1.1" xmlns="http://www.w3.org/2000/svg" p-id="6590" xmlns:xlink="http://www.w3.org/1999/xlink" width="200" height="200"><path d="M461.627627 971.937203v-154.804286a50.315647 50.315647 0 1 1 100.68802 0v154.861012a50.372373 50.372373 0 1 1-100.68802 0" fill="#CCCCCC" p-id="6591"></path><path d="M708.611086 947.431724L631.123855 813.389025a50.485824 50.485824 0 0 1 87.300767-50.485824l77.430506 134.15615a50.372373 50.372373 0 0 1-86.960414 50.882904l-0.283628-0.567256" fill="#898989" p-id="6592"></path><path d="M246.580707 965.867559a50.372373 50.372373 0 0 1-18.435835-68.808208l77.430506-134.099425a50.372373 50.372373 0 0 1 87.187316 50.429099l-77.37378 134.042699a50.372373 50.372373 0 0 1-68.751482 18.492561v-0.056726" fill="#C6C6C6" p-id="6593"></path><path d="M876.06519 780.204523l-134.099425-77.37378a50.315647 50.315647 0 0 1 50.372373-87.244043l134.099425 77.430506a50.429098 50.429098 0 0 1-50.372373 87.187317z" fill="#999999" p-id="6594"></path><path d="M58.875547 761.825414a50.315647 50.315647 0 0 1 18.435835-68.808208l134.099425-77.430506a50.315647 50.315647 0 1 1 50.372373 87.187317l-134.156151 77.430506a50.315647 50.315647 0 0 1-68.751482-18.322384z" fill="#C1C1C1" p-id="6595"></path><path d="M817.297422 551.713624a50.315647 50.315647 0 1 1 0-100.744746h154.861011a50.372373 50.372373 0 1 1 0 100.744746h-154.861011z" fill="#9E9E9E" p-id="6596"></path><path d="M51.841567 551.713624a50.315647 50.315647 0 1 1 0-100.744746h154.861011a50.372373 50.372373 0 1 1 0 100.744746H51.841567z" fill="#BCBCBC" p-id="6597"></path><path d="M723.586656 388.287041a50.315647 50.315647 0 0 1 18.435835-68.808208l134.15615-77.430505a50.372373 50.372373 0 0 1 52.017417 86.22298l-1.701769 1.021062-134.099425 77.37378a50.258922 50.258922 0 0 1-68.751482-18.322384z" fill="#A3A3A3" p-id="6598"></path><path d="M211.410807 406.722875L77.311382 329.29237a50.372373 50.372373 0 0 1 50.315647-87.244042L261.839905 319.478833a50.372373 50.372373 0 1 1-49.23786 87.92475l-1.134513-0.737433v0.056725z" fill="#B7B7B7" p-id="6599"></path><path d="M649.616415 297.469283a50.372373 50.372373 0 0 1-18.435835-68.751482V228.60435l77.430506-134.099425a50.315647 50.315647 0 1 1 89.002537 47.082285l-1.815221 3.290088-77.37378 134.099425a50.372373 50.372373 0 0 1-68.751481 18.49256l-0.056726-0.056726" fill="#A8A8A8" p-id="6600"></path><path d="M305.518652 278.976723L228.315049 144.877298a50.315647 50.315647 0 0 1 87.130591-50.372373L392.81942 228.60435a50.372373 50.372373 0 1 1-86.960414 50.882903l-0.283628-0.51053" fill="#B2B2B2" p-id="6601"></path><path d="M461.514176 205.233384V50.372373a50.315647 50.315647 0 1 1 100.744746 0v154.861011a50.429098 50.429098 0 0 1-100.744746 0" fill="#ADADAD" p-id="6602"></path></svg>